<?xml version="1.0" standalone="no"?>
<!DOCTYPE svg PUBLIC "-//W3C//DTD SVG 20010904//EN"
        "http://www.w3.org/TR/2001/REC-SVG-20010904/DTD/svg10.dtd">
<svg version="1.0" xmlns="http://www.w3.org/2000/svg"
     width="512.000000pt" height="512.000000pt" viewBox="0 0 512.000000 512.000000"
     preserveAspectRatio="xMidYMid meet" id="instagram">

    <g transform="translate(0.000000,512.000000) scale(0.100000,-0.100000)"
       stroke="none">
        <path d="M957 5104 c-408 -63 -760 -362 -896 -760 -62 -183 -61 -140 -61
-1784 0 -1272 2 -1510 15 -1594 63 -416 358 -768 761 -905 183 -62 140 -61
1784 -61 1272 0 1510 2 1594 15 416 63 768 358 905 761 62 183 61 140 61 1784
0 1272 -2 1510 -15 1594 -63 416 -358 768 -761 905 -184 62 -139 61 -1794 60
-1219 -1 -1522 -4 -1593 -15z m3190 -164 c186 -30 364 -122 510 -263 148 -143
251 -336 283 -530 13 -84 13 -3090 0 -3174 -32 -194 -135 -387 -283 -530 -146
-141 -324 -233 -510 -263 -84 -13 -3090 -13 -3174 0 -186 30 -364 122 -510
263 -148 143 -251 336 -283 530 -13 84 -13 3090 0 3174 12 73 53 199 88 268
88 176 260 348 437 437 63 32 197 77 261 87 73 13 3106 13 3181 1z"/>
        <path d="M1004 4715 c-149 -32 -267 -99 -384 -215 -118 -118 -183 -235 -215
-388 -22 -100 -22 -3004 0 -3104 32 -153 97 -270 215 -388 118 -118 235 -183
388 -215 100 -22 3004 -22 3104 0 153 32 270 97 388 215 118 118 183 235 215
388 22 100 22 3004 0 3104 -32 153 -97 270 -215 388 -118 118 -235 183 -388
215 -96 21 -3014 20 -3108 0z m3071 -160 c236 -49 431 -244 480 -480 22 -105
22 -2925 0 -3030 -49 -236 -244 -431 -480 -480 -105 -22 -2925 -22 -3030 0
-236 49 -431 244 -480 480 -22 105 -22 2925 0 3030 49 233 243 430 475 479 99
22 2933 22 3035 1z"/>
        <path d="M3902 4330 c-65 -14 -131 -50 -181 -101 -143 -142 -143 -366 0 -508
207 -208 556 -96 610 194 20 109 -20 234 -102 316 -79 79 -219 121 -327 99z
m181 -193 c103 -78 118 -203 36 -292 -48 -52 -92 -69 -164 -63 -158 13 -233
203 -127 320 49 55 84 69 158 65 49 -2 69 -9 97 -30z"/>
        <path d="M2420 4110 c-610 -60 -1127 -471 -1323 -1050 -132 -388 -103 -816 78
-1183 26 -51 55 -100 67 -109 27 -24 69 -23 102 3 38 30 34 71 -18 176 -90
177 -134 352 -143 560 -30 678 433 1271 1107 1418 102 22 346 31 451 16 309
-44 589 -182 803 -397 215 -214 353 -494 397 -803 15 -105 6 -349 -16 -451
-103 -471 -435 -858 -879 -1024 -336 -126 -726 -112 -1050 37 -154 70 -248
134 -379 255 -80 74 -104 85 -147 71 -35 -13 -50 -35 -50 -78 0 -38 29 -71
143 -167 319 -268 708 -394 1118 -364 145 11 245 32 379 77 712 241 1149 955
1039 1698 -100 669 -624 1195 -1299 1304 -96 15 -283 21 -380 11z"/>
        <path d="M2450 3559 c-228 -26 -458 -142 -615 -310 -404 -433 -343 -1130 129
-1481 502 -373 1204 -212 1490 341 193 374 129 831 -159 1140 -161 172 -390
286 -625 311 -107 11 -115 11 -220 -1z m278 -175 c409 -84 690 -444 669 -858
-9 -182 -63 -329 -174 -474 -102 -134 -280 -251 -453 -298 -91 -25 -319 -25
-410 0 -97 26 -238 98 -318 161 -130 104 -243 279 -288 445 -25 91 -25 319 0
410 88 324 357 568 686 623 62 10 218 6 288 -9z"/>
    </g>
</svg>
