<?xml version="1.0" standalone="no"?>
<!DOCTYPE svg PUBLIC "-//W3C//DTD SVG 20010904//EN"
        "http://www.w3.org/TR/2001/REC-SVG-20010904/DTD/svg10.dtd">
<svg version="1.0" xmlns="http://www.w3.org/2000/svg"
     width="512.000000pt" height="512.000000pt" viewBox="0 0 512.000000 512.000000"
     preserveAspectRatio="xMidYMid meet">

    <g transform="translate(0.000000,512.000000) scale(0.100000,-0.100000)"
       stroke="none">
        <path d="M2380 5114 c-19 -2 -78 -9 -130 -14 -330 -36 -695 -160 -990 -336
-375 -224 -680 -529 -904 -904 -175 -292 -291 -632 -338 -990 -16 -123 -16
-497 0 -620 47 -358 163 -698 338 -990 224 -375 529 -680 904 -904 292 -175
632 -291 990 -338 123 -16 497 -16 620 0 623 82 1150 356 1581 820 351 376
579 872 651 1412 7 54 12 192 12 320 0 238 -12 351 -59 560 -100 451 -348 903
-668 1218 -70 69 -89 83 -117 84 -25 1 -39 -6 -57 -26 -38 -45 -31 -70 45
-150 353 -368 565 -766 656 -1232 101 -519 29 -1052 -205 -1524 -240 -483
-606 -849 -1089 -1089 -345 -171 -664 -245 -1060 -245 -396 0 -715 74 -1060
245 -483 240 -849 606 -1089 1089 -171 345 -245 664 -245 1060 0 396 74 715
245 1060 240 483 606 849 1089 1089 756 375 1626 326 2362 -133 60 -38 83 -47
103 -42 58 15 83 76 50 123 -19 27 -180 126 -310 191 -262 130 -542 215 -835
252 -89 11 -430 21 -490 14z"/>
        <path d="M2957 3678 c-427 -199 -786 -370 -797 -380 -22 -20 -26 -67 -10 -98
15 -28 60 -40 101 -25 19 6 234 105 478 219 244 114 444 206 446 204 2 -3
-1415 -1153 -1478 -1200 -22 -16 -32 -12 -307 108 -156 68 -285 126 -287 127
-2 2 184 91 413 197 374 174 418 197 429 224 26 62 -30 125 -94 106 -46 -14
-884 -409 -913 -430 -56 -41 -59 -138 -5 -188 12 -11 168 -84 347 -162 179
-78 328 -145 332 -149 4 -3 50 -265 103 -581 82 -494 99 -578 117 -597 24 -26
74 -31 100 -11 9 7 135 193 278 413 144 220 268 406 275 413 10 11 104 -29
528 -227 583 -272 572 -268 637 -203 34 34 39 45 44 102 3 36 35 569 71 1185
35 616 67 1150 70 1188 6 65 5 68 -24 97 -16 17 -40 30 -53 30 -13 0 -373
-163 -801 -362z m643 -1028 c-33 -553 -60 -1020 -60 -1037 0 -18 -4 -33 -9
-33 -12 0 -943 434 -944 441 -2 6 1066 1639 1070 1636 1 -2 -25 -455 -57
-1007z m-602 583 c-144 -157 -927 -1043 -935 -1058 -6 -11 -44 -161 -84 -332
-40 -172 -76 -309 -80 -305 -13 15 -121 706 -113 719 9 13 1225 1002 1233
1003 3 0 -7 -12 -21 -27z m76 -165 c-10 -17 -635 -972 -639 -976 -5 -6 -165
72 -163 79 3 9 801 908 806 908 2 1 0 -5 -4 -11z m-796 -1083 c38 -17 61 -33
58 -40 -9 -25 -249 -386 -253 -381 -4 4 95 434 104 449 6 9 3 10 91 -28z"/>
    </g>
</svg>
