<?xml version="1.0" standalone="no"?>
<!DOCTYPE svg PUBLIC "-//W3C//DTD SVG 20010904//EN"
        "http://www.w3.org/TR/2001/REC-SVG-20010904/DTD/svg10.dtd">
<svg version="1.0" xmlns="http://www.w3.org/2000/svg"
     width="512.000000pt" height="512.000000pt" viewBox="0 0 512.000000 512.000000"
     preserveAspectRatio="xMidYMid meet">

    <g transform="translate(0.000000,512.000000) scale(0.100000,-0.100000)"
       stroke="none">
        <path d="M2380 5114 c-19 -2 -78 -9 -130 -14 -230 -25 -520 -106 -748 -208
-225 -101 -484 -273 -664 -441 -464 -431 -737 -956 -820 -1581 -18 -133 -15
-506 5 -645 50 -358 177 -713 357 -1005 l60 -98 -216 -503 c-119 -277 -219
-512 -221 -522 -12 -41 35 -97 82 -97 7 0 235 106 506 235 l492 234 91 -58
c321 -207 663 -333 1051 -388 139 -20 512 -23 645 -5 540 72 1036 300 1412
651 341 316 569 667 708 1091 91 274 124 491 124 800 0 228 -9 329 -50 530
-141 689 -583 1304 -1204 1674 -289 173 -634 291 -980 336 -88 12 -438 21
-500 14z m520 -179 c263 -40 489 -111 720 -226 483 -240 849 -606 1089 -1089
171 -345 245 -664 245 -1060 0 -396 -74 -715 -245 -1060 -355 -715 -1021
-1198 -1810 -1314 -581 -86 -1207 61 -1697 397 -46 32 -94 57 -108 57 -14 0
-210 -88 -435 -196 -226 -107 -412 -194 -414 -192 -1 2 80 196 181 431 101
236 184 439 184 451 0 12 -25 62 -56 112 -233 369 -350 714 -385 1134 -49 596
142 1209 528 1689 378 472 970 801 1565 870 51 6 109 13 128 15 74 9 410 -4
510 -19z"/>
        <path d="M2320 4679 c-488 -60 -920 -270 -1264 -615 -315 -314 -516 -699 -598
-1144 -31 -167 -31 -553 0 -720 82 -445 283 -830 598 -1144 314 -315 699 -516
1144 -598 167 -31 553 -31 720 0 445 82 830 283 1144 598 315 314 516 700 598
1144 32 171 32 544 0 716 -67 367 -212 692 -435 972 -80 101 -235 260 -270
279 -56 29 -117 -8 -117 -70 0 -23 24 -53 118 -150 64 -67 146 -160 180 -207
214 -285 341 -612 383 -980 14 -127 7 -400 -15 -515 -61 -335 -186 -625 -379
-879 -79 -104 -269 -294 -373 -373 -258 -196 -556 -323 -904 -385 -101 -17
-479 -17 -580 0 -348 62 -646 189 -904 385 -104 79 -294 269 -373 373 -196
258 -323 556 -385 904 -17 101 -17 479 0 580 62 348 189 646 385 904 79 104
269 294 373 373 254 193 544 318 879 379 112 21 388 29 513 15 238 -26 460
-90 679 -197 72 -35 142 -64 156 -64 56 0 91 87 52 130 -20 22 -231 127 -330
164 -119 44 -234 76 -375 102 -111 22 -171 27 -340 29 -113 2 -239 0 -280 -6z"/>
        <path d="M1563 3916 c-162 -60 -293 -195 -344 -355 -33 -101 -36 -256 -10
-406 45 -248 157 -596 211 -652 13 -13 34 -23 50 -23 32 0 80 43 80 72 0 11
-22 79 -49 151 -88 234 -151 504 -151 645 0 190 78 326 232 401 l67 33 173
-31 c95 -18 176 -35 180 -39 3 -4 28 -118 55 -253 l50 -246 -139 -140 c-115
-117 -138 -146 -138 -170 0 -36 79 -205 152 -325 191 -316 416 -515 765 -680
56 -26 116 -48 134 -48 27 0 51 19 172 138 l140 139 246 -50 c135 -27 249 -52
253 -55 4 -4 21 -85 39 -180 l31 -173 -33 -67 c-98 -200 -287 -269 -586 -211
-446 86 -849 271 -1137 523 -83 73 -191 200 -269 318 -68 102 -76 109 -118
110 -37 1 -79 -39 -79 -75 0 -40 131 -233 238 -350 301 -331 824 -596 1355
-687 259 -44 436 -13 580 100 93 74 171 192 198 297 12 48 10 68 -25 260 -42
234 -48 256 -79 272 -27 14 -609 131 -651 131 -24 0 -52 -23 -165 -135 l-136
-134 -111 58 c-328 171 -508 353 -695 706 l-48 90 134 136 c112 113 135 141
135 165 0 42 -117 625 -131 651 -7 12 -19 25 -28 29 -27 11 -424 84 -456 83
-16 0 -58 -10 -92 -23z"/>
    </g>
</svg>
